<svg width="1187" height="700" viewBox="0 0 1187 700" fill="none" xmlns="http://www.w3.org/2000/svg">
<mask id="mask0_109_154" style="mask-type:alpha" maskUnits="userSpaceOnUse" x="0" y="0" width="1187" height="700">
<rect width="1187" height="700" fill="url(#paint0_linear_109_154)"/>
</mask>
<g mask="url(#mask0_109_154)">
<circle cx="707" cy="251" r="10" fill="#D9D9D9"/>
<circle cx="707" cy="320" r="10" fill="#D9D9D9"/>
<circle cx="707" cy="389" r="10" fill="#D9D9D9"/>
<circle cx="707" cy="458" r="10" fill="#D9D9D9"/>
<circle cx="707" cy="527" r="10" fill="#D9D9D9"/>
<circle cx="707" cy="596" r="10" fill="#D9D9D9"/>
<circle cx="707" cy="665" r="10" fill="#D9D9D9"/>
<circle cx="794" cy="44" r="10" fill="#D9D9D9"/>
<circle cx="794" cy="113" r="10" fill="#D9D9D9"/>
<circle cx="794" cy="182" r="10" fill="#D9D9D9"/>
<circle cx="794" cy="251" r="10" fill="#D9D9D9"/>
<circle cx="794" cy="320" r="10" fill="#D9D9D9"/>
<circle cx="881" cy="44" r="10" fill="#D9D9D9"/>
<circle cx="881" cy="113" r="10" fill="#D9D9D9"/>
<circle cx="881" cy="182" r="10" fill="#D9D9D9"/>
<circle cx="881" cy="251" r="10" fill="#D9D9D9"/>
<circle cx="881" cy="320" r="10" fill="#D9D9D9"/>
<circle cx="794" cy="389" r="10" fill="#D9D9D9"/>
<circle cx="794" cy="458" r="10" fill="#D9D9D9"/>
<circle cx="794" cy="527" r="10" fill="#D9D9D9"/>
<circle cx="794" cy="596" r="10" fill="#D9D9D9"/>
<circle cx="794" cy="665" r="10" fill="#D9D9D9"/>
<circle cx="881" cy="389" r="10" fill="#D9D9D9"/>
<circle cx="881" cy="458" r="10" fill="#D9D9D9"/>
<circle cx="881" cy="527" r="10" fill="#D9D9D9"/>
<circle cx="881" cy="596" r="10" fill="#D9D9D9"/>
<circle cx="881" cy="665" r="10" fill="#D9D9D9"/>
<circle cx="968" cy="44" r="10" fill="#D9D9D9"/>
<circle cx="968" cy="113" r="10" fill="#D9D9D9"/>
<circle cx="968" cy="182" r="10" fill="#D9D9D9"/>
<circle cx="968" cy="251" r="10" fill="#D9D9D9"/>
<circle cx="968" cy="320" r="10" fill="#D9D9D9"/>
<circle cx="968" cy="389" r="10" fill="#D9D9D9"/>
<circle cx="968" cy="458" r="10" fill="#D9D9D9"/>
<circle cx="968" cy="527" r="10" fill="#D9D9D9"/>
<circle cx="968" cy="596" r="10" fill="#D9D9D9"/>
<circle cx="968" cy="665" r="10" fill="#D9D9D9"/>
<circle cx="1055" cy="44" r="10" fill="#D9D9D9"/>
<circle cx="1055" cy="113" r="10" fill="#D9D9D9"/>
<circle cx="1055" cy="182" r="10" fill="#D9D9D9"/>
<circle cx="1055" cy="251" r="10" fill="#D9D9D9"/>
<circle cx="1055" cy="320" r="10" fill="#D9D9D9"/>
<circle cx="1142" cy="44" r="10" fill="#D9D9D9"/>
<circle cx="1142" cy="113" r="10" fill="#D9D9D9"/>
<circle cx="1142" cy="182" r="10" fill="#D9D9D9"/>
<circle cx="1142" cy="251" r="10" fill="#D9D9D9"/>
<circle cx="1142" cy="320" r="10" fill="#D9D9D9"/>
<circle cx="1055" cy="389" r="10" fill="#D9D9D9"/>
<circle cx="1055" cy="458" r="10" fill="#D9D9D9"/>
<circle cx="1055" cy="527" r="10" fill="#D9D9D9"/>
<circle cx="1055" cy="596" r="10" fill="#D9D9D9"/>
<circle cx="1055" cy="665" r="10" fill="#D9D9D9"/>
<circle cx="1142" cy="389" r="10" fill="#D9D9D9"/>
<circle cx="1142" cy="458" r="10" fill="#D9D9D9"/>
<circle cx="1142" cy="527" r="10" fill="#D9D9D9"/>
<circle cx="1142" cy="596" r="10" fill="#D9D9D9"/>
<circle cx="1142" cy="665" r="10" fill="#D9D9D9"/>
<circle cx="446" cy="527" r="10" fill="#D9D9D9"/>
<circle cx="446" cy="596" r="10" fill="#D9D9D9"/>
<circle cx="446" cy="665" r="10" fill="#D9D9D9"/>
<circle cx="620" cy="320" r="10" fill="#D9D9D9"/>
<circle cx="533" cy="458" r="10" fill="#D9D9D9"/>
<circle cx="533" cy="527" r="10" fill="#D9D9D9"/>
<circle cx="533" cy="596" r="10" fill="#D9D9D9"/>
<circle cx="533" cy="665" r="10" fill="#D9D9D9"/>
<circle cx="620" cy="389" r="10" fill="#D9D9D9"/>
<circle cx="620" cy="458" r="10" fill="#D9D9D9"/>
<circle cx="620" cy="527" r="10" fill="#D9D9D9"/>
<circle cx="620" cy="596" r="10" fill="#D9D9D9"/>
<circle cx="620" cy="665" r="10" fill="#D9D9D9"/>
<circle cx="185" cy="665" r="10" fill="#D9D9D9"/>
<circle cx="272" cy="665" r="10" fill="#D9D9D9"/>
<circle cx="359" cy="596" r="10" fill="#D9D9D9"/>
<circle cx="359" cy="665" r="10" fill="#D9D9D9"/>
<circle cx="98" cy="665" r="10" fill="#D9D9D9"/>
</g>
<defs>
<linearGradient id="paint0_linear_109_154" x1="1300.45" y1="875.498" x2="594" y2="212.5" gradientUnits="userSpaceOnUse">
<stop stop-opacity="0.1"/>
<stop offset="1" stop-opacity="0"/>
</linearGradient>
</defs>
</svg>
